Coordinates
nRows=4
nColumns=34

# SIMM Motion File Header:
name Coordinates
datacolumns 34
datarows 4
otherdata 1
range 0.89700000000000002000 0.90000000000000002000
endheader
time	pelvis_tz	pelvis_tx	pelvis_ty	pelvis_tilt	pelvis_list	pelvis_rotation	hip_flexion_r	hip_adduction_r	hip_rotation_r	knee_r_tx	knee_r_ty	knee_angle_r	tib_pat_r_tx	tib_pat_r_ty	tib_pat_r_r1	ankle_angle_r	subtalar_angle_r	mtp_angle_r	hip_flexion_l	hip_adduction_l	hip_rotation_l	knee_l_tx	knee_l_ty	knee_angle_l	tib_pat_l_tx	tib_pat_l_ty	tib_pat_l_r1	ankle_angle_l	subtalar_angle_l	mtp_angle_l	lumbar_extension	lumbar_bending	lumbar_rotation
      0.89700000000000002000	      0.03754911788376190400	      0.60178743582477856000	      1.03424687562292530000	      4.90061224673503660000	     -1.55403094710749650000	      2.58647894067298180000	      7.35075685279803270000	      2.51045677417365810000	     -6.46185247160920100000	     -0.00150364449769419890	     -0.45594738774180127000	    -18.51508879884783100000	      0.04658514814186984900	     -0.02170168719635660500	     13.16670663596441700000	      5.89150773294162540000	     -0.00000000000000230341	     -0.00000000000001201165	      8.84262988402481830000	     -6.26978250618861390000	     -4.09211778851093830000	      0.00502632291191524360	     -0.46783214914093135000	    -68.52242980369480600000	      0.03537187539537591700	     -0.01991179066316152100	     17.51043087679281400000	     -3.30367283838813600000	      0.00000000000000261619	     -0.00000000000000778505	    -15.35663734581280900000	      4.43456043858578660000	     -2.52398498174384930000
      0.89800000000000002000	      0.03771275851135157800	      0.60171769170808831000	      1.03442076591518270000	      4.90469929837592570000	     -1.54300960014370660000	      2.56742339716677970000	      7.24001553504628430000	      2.51764040453556560000	     -6.43426124262850060000	     -0.00152357494258236830	     -0.45593697649881160000	    -18.43356956762331200000	      0.04659717897279801200	     -0.02170457758048602300	     13.14033534334106800000	      5.91510911006809260000	     -0.00000000000000233099	     -0.00000000000001220399	      8.96720976446468040000	     -6.25722042548145390000	     -4.10271700762999550000	      0.00502659250711228780	     -0.46784063638512630000	    -68.54915381675142800000	      0.03536445814175948700	     -0.01991111676042733500	     17.51062718240473300000	     -3.20952758376786340000	      0.00000000000000271440	     -0.00000000000000791233	    -15.36267175696807800000	      4.41284474593538880000	     -2.48495399842195660000
      0.89900000000000002000	      0.03787470351119913400	      0.60164711530461035000	      1.03459375819510410000	      4.90889006006146200000	     -1.53157170271984720000	      2.54816277493102210000	      7.12911977870737520000	      2.52415917205948580000	     -6.40633453955479480000	     -0.00154360810842798140	     -0.45592657083263877000	    -18.35179108864969100000	      0.04660922219563788000	     -0.02170747621248338500	     13.11363521887503200000	      5.93724580174003510000	     -0.00000000000000235616	     -0.00000000000001240626	      9.09086633607070560000	     -6.24327730351491270000	     -4.11209627111054220000	      0.00502682054825749100	     -0.46784799652538078000	    -68.57232377273605600000	      0.03535802538752052400	     -0.01991053386421855500	     17.51079640002004100000	     -3.11491399148262140000	      0.00000000000000281694	     -0.00000000000000804613	    -15.36892445460405200000	      4.39072716669288090000	     -2.44603625262973970000
      0.90000000000000002000	      0.03803664851104669000	      0.60157653890113227000	      1.03476675047502580000	      4.91308082174699830000	     -1.52013380529598700000	      2.52890215269526490000	      7.01822402236846620000	      2.53067793958340510000	     -6.37840783648108990000	     -0.00156364127427359470	     -0.45591616516646588000	    -18.27001260967606600000	      0.04662126541847775400	     -0.02171037484448074700	     13.08693509440899500000	      5.95938249341197230000	     -0.00000000000000238134	     -0.00000000000001260853	      9.21452290767672900000	     -6.22933418154837070000	     -4.12147553459108630000	      0.00502704858940269340	     -0.46785535666563527000	    -68.59549372872066900000	      0.03535159263328156700	     -0.01990995096800977600	     17.51096561763535000000	     -3.02030039919738070000	      0.00000000000000291948	     -0.00000000000000817994	    -15.37517715224002600000	      4.36860958745037210000	     -2.40711850683752360000
